HIERARCHY
ROOT mixamorig:Hips
{
	OFFSET -0.000008 104.274872 1.554316
	CHANNELS 6 Xposition Yposition Zposition Xrotation Yrotation Zrotation
	JOINT mixamorig:Spine
	{
		OFFSET -0.000005 10.181595 0.131519
		CHANNELS 6 Xposition Yposition Zposition Xrotation Yrotation Zrotation
		JOINT mixamorig:Spine1
		{
			OFFSET -0.000000 9.893959 -1.470707
			CHANNELS 6 Xposition Yposition Zposition Xrotation Yrotation Zrotation
			JOINT mixamorig:Spine2
			{
				OFFSET -0.000000 9.220757 -1.370641
				CHANNELS 6 Xposition Yposition Zposition Xrotation Yrotation Zrotation
				JOINT mixamorig:Neck
				{
					OFFSET 0.000001 16.740417 -2.049036
					CHANNELS 6 Xposition Yposition Zposition Xrotation Yrotation Zrotation
					JOINT mixamorig:Head
					{
						OFFSET 0.000000 9.617874 1.685006
						CHANNELS 6 Xposition Yposition Zposition Xrotation Yrotation Zrotation
						JOINT mixamorig:HeadTop_End
						{
							OFFSET 0.000002 22.037354 7.501101
							CHANNELS 6 Xposition Yposition Zposition Xrotation Yrotation Zrotation
							End Site
							{
								OFFSET 0.000168 2310.654297 -282.823242
							}
						}
					}
				}
				JOINT mixamorig:RightShoulder
				{
					OFFSET -4.569970 11.014908 -2.160885
					CHANNELS 6 Xposition Yposition Zposition Xrotation Yrotation Zrotation
					JOINT mixamorig:RightArm
					{
						OFFSET -10.592851 -0.524811 -2.232101
						CHANNELS 6 Xposition Yposition Zposition Xrotation Yrotation Zrotation
						JOINT mixamorig:RightForeArm
						{
							OFFSET -27.841511 0.000031 -0.000004
							CHANNELS 6 Xposition Yposition Zposition Xrotation Yrotation Zrotation
							JOINT mixamorig:RightHand
							{
								OFFSET -28.328831 -0.000015 0.000015
								CHANNELS 6 Xposition Yposition Zposition Xrotation Yrotation Zrotation
								JOINT mixamorig:RightHandThumb1
								{
									OFFSET -2.464806 -1.573990 2.681852
									CHANNELS 6 Xposition Yposition Zposition Xrotation Yrotation Zrotation
									JOINT mixamorig:RightHandThumb2
									{
										OFFSET -3.215179 -1.872803 1.924282
										CHANNELS 6 Xposition Yposition Zposition Xrotation Yrotation Zrotation
										JOINT mixamorig:RightHandThumb3
										{
											OFFSET -2.654831 -1.527969 1.512609
											CHANNELS 6 Xposition Yposition Zposition Xrotation Yrotation Zrotation
											JOINT mixamorig:RightHandThumb4
											{
												OFFSET -2.018814 -1.152008 1.108052
												CHANNELS 6 Xposition Yposition Zposition Xrotation Yrotation Zrotation
												End Site
												{
													OFFSET -188.809540 -114.533607 132.431396
												}
											}
										}
									}
								}
								JOINT mixamorig:RightHandIndex1
								{
									OFFSET -9.108284 -0.517868 2.259835
									CHANNELS 6 Xposition Yposition Zposition Xrotation Yrotation Zrotation
									JOINT mixamorig:RightHandIndex2
									{
										OFFSET -3.699989 0.000000 0.001215
										CHANNELS 6 Xposition Yposition Zposition Xrotation Yrotation Zrotation
										JOINT mixamorig:RightHandIndex3
										{
											OFFSET -2.850006 0.000031 -0.000522
											CHANNELS 6 Xposition Yposition Zposition Xrotation Yrotation Zrotation
											JOINT mixamorig:RightHandIndex4
											{
												OFFSET -2.772186 -0.000015 -0.000020
												CHANNELS 6 Xposition Yposition Zposition Xrotation Yrotation Zrotation
												End Site
												{
													OFFSET -277.218445 0.000000 -0.050231
												}
											}
										}
									}
								}
								JOINT mixamorig:RightHandMiddle1
								{
									OFFSET -9.532516 -0.000031 -0.000023
									CHANNELS 6 Xposition Yposition Zposition Xrotation Yrotation Zrotation
									JOINT mixamorig:RightHandMiddle2
									{
										OFFSET -3.700005 -0.000015 0.003713
										CHANNELS 6 Xposition Yposition Zposition Xrotation Yrotation Zrotation
										JOINT mixamorig:RightHandMiddle3
										{
											OFFSET -2.949974 0.000015 -0.002054
											CHANNELS 6 Xposition Yposition Zposition Xrotation Yrotation Zrotation
											JOINT mixamorig:RightHandMiddle4
											{
												OFFSET -2.946640 0.000000 -0.000156
												CHANNELS 6 Xposition Yposition Zposition Xrotation Yrotation Zrotation
												End Site
												{
													OFFSET -294.664337 0.000000 -0.113670
												}
											}
										}
									}
								}
								JOINT mixamorig:RightHandRing1
								{
									OFFSET -9.103600 -0.043076 -1.865134
									CHANNELS 6 Xposition Yposition Zposition Xrotation Yrotation Zrotation
									JOINT mixamorig:RightHandRing2
									{
										OFFSET -3.379288 0.000000 -0.001055
										CHANNELS 6 Xposition Yposition Zposition Xrotation Yrotation Zrotation
										JOINT mixamorig:RightHandRing3
										{
											OFFSET -2.889687 -0.000015 0.000379
											CHANNELS 6 Xposition Yposition Zposition Xrotation Yrotation Zrotation
											JOINT mixamorig:RightHandRing4
											{
												OFFSET -2.638809 -0.000015 0.000941
												CHANNELS 6 Xposition Yposition Zposition Xrotation Yrotation Zrotation
												End Site
												{
													OFFSET -263.880371 0.000000 0.516020
												}
											}
										}
									}
								}
								JOINT mixamorig:RightHandPinky1
								{
									OFFSET -8.076683 -0.486710 -3.806280
									CHANNELS 6 Xposition Yposition Zposition Xrotation Yrotation Zrotation
									JOINT mixamorig:RightHandPinky2
									{
										OFFSET -3.600014 -0.000015 -0.003747
										CHANNELS 6 Xposition Yposition Zposition Xrotation Yrotation Zrotation
										JOINT mixamorig:RightHandPinky3
										{
											OFFSET -2.099983 0.000000 -0.005739
											CHANNELS 6 Xposition Yposition Zposition Xrotation Yrotation Zrotation
											JOINT mixamorig:RightHandPinky4
											{
												OFFSET -2.115768 -0.000031 -0.003680
												CHANNELS 6 Xposition Yposition Zposition Xrotation Yrotation Zrotation
												End Site
												{
													OFFSET -211.577087 0.000000 -0.350686
												}
											}
										}
									}
								}
							}
						}
					}
				}
				JOINT mixamorig:LeftShoulder
				{
					OFFSET 4.570447 11.014725 -2.160855
					CHANNELS 6 Xposition Yposition Zposition Xrotation Yrotation Zrotation
					JOINT mixamorig:LeftArm
					{
						OFFSET 10.592371 -0.524597 -2.232119
						CHANNELS 6 Xposition Yposition Zposition Xrotation Yrotation Zrotation
						JOINT mixamorig:LeftForeArm
						{
							OFFSET 27.841532 -0.000031 0.000026
							CHANNELS 6 Xposition Yposition Zposition Xrotation Yrotation Zrotation
							JOINT mixamorig:LeftHand
							{
								OFFSET 28.328846 -0.000061 0.000022
								CHANNELS 6 Xposition Yposition Zposition Xrotation Yrotation Zrotation
								JOINT mixamorig:LeftHandThumb1
								{
									OFFSET 2.466141 -1.576172 2.681732
									CHANNELS 6 Xposition Yposition Zposition Xrotation Yrotation Zrotation
									JOINT mixamorig:LeftHandThumb2
									{
										OFFSET 3.217812 -1.872070 1.916482
										CHANNELS 6 Xposition Yposition Zposition Xrotation Yrotation Zrotation
										JOINT mixamorig:LeftHandThumb3
										{
											OFFSET 2.656029 -1.528778 1.514513
											CHANNELS 6 Xposition Yposition Zposition Xrotation Yrotation Zrotation
											JOINT mixamorig:LeftHandThumb4
											{
												OFFSET 2.020889 -1.154053 1.115139
												CHANNELS 6 Xposition Yposition Zposition Xrotation Yrotation Zrotation
												End Site
												{
													OFFSET 190.885437 -115.081749 130.048782
												}
											}
										}
									}
								}
								JOINT mixamorig:LeftHandIndex1
								{
									OFFSET 9.109314 -0.518021 2.259871
									CHANNELS 6 Xposition Yposition Zposition Xrotation Yrotation Zrotation
									JOINT mixamorig:LeftHandIndex2
									{
										OFFSET 3.699989 0.000000 -0.000322
										CHANNELS 6 Xposition Yposition Zposition Xrotation Yrotation Zrotation
										JOINT mixamorig:LeftHandIndex3
										{
											OFFSET 2.850006 0.000000 0.000352
											CHANNELS 6 Xposition Yposition Zposition Xrotation Yrotation Zrotation
											JOINT mixamorig:LeftHandIndex4
											{
												OFFSET 2.774864 -0.000031 -0.000027
												CHANNELS 6 Xposition Yposition Zposition Xrotation Yrotation Zrotation
												End Site
												{
													OFFSET 277.486267 0.000000 -0.009857
												}
											}
										}
									}
								}
								JOINT mixamorig:LeftHandMiddle1
								{
									OFFSET 9.533394 0.000061 0.000044
									CHANNELS 6 Xposition Yposition Zposition Xrotation Yrotation Zrotation
									JOINT mixamorig:LeftHandMiddle2
									{
										OFFSET 3.699989 -0.000015 -0.000231
										CHANNELS 6 Xposition Yposition Zposition Xrotation Yrotation Zrotation
										JOINT mixamorig:LeftHandMiddle3
										{
											OFFSET 2.949997 -0.000015 -0.000059
											CHANNELS 6 Xposition Yposition Zposition Xrotation Yrotation Zrotation
											JOINT mixamorig:LeftHandMiddle4
											{
												OFFSET 2.952896 0.000031 0.000063
												CHANNELS 6 Xposition Yposition Zposition Xrotation Yrotation Zrotation
												End Site
												{
													OFFSET 295.289337 0.000000 0.022810
												}
											}
										}
									}
								}
								JOINT mixamorig:LeftHandRing1
								{
									OFFSET 9.104523 -0.042999 -1.865074
									CHANNELS 6 Xposition Yposition Zposition Xrotation Yrotation Zrotation
									JOINT mixamorig:LeftHandRing2
									{
										OFFSET 3.150009 -0.000031 0.000043
										CHANNELS 6 Xposition Yposition Zposition Xrotation Yrotation Zrotation
										JOINT mixamorig:LeftHandRing3
										{
											OFFSET 2.949982 -0.000015 0.000040
											CHANNELS 6 Xposition Yposition Zposition Xrotation Yrotation Zrotation
											JOINT mixamorig:LeftHandRing4
											{
												OFFSET 2.644348 0.000000 0.000057
												CHANNELS 6 Xposition Yposition Zposition Xrotation Yrotation Zrotation
												End Site
												{
													OFFSET 264.434631 0.000000 0.012105
												}
											}
										}
									}
								}
								JOINT mixamorig:LeftHandPinky1
								{
									OFFSET 8.077789 -0.486847 -3.806259
									CHANNELS 6 Xposition Yposition Zposition Xrotation Yrotation Zrotation
									JOINT mixamorig:LeftHandPinky2
									{
										OFFSET 3.599953 0.000031 0.014727
										CHANNELS 6 Xposition Yposition Zposition Xrotation Yrotation Zrotation
										JOINT mixamorig:LeftHandPinky3
										{
											OFFSET 2.100021 0.000015 0.007705
											CHANNELS 6 Xposition Yposition Zposition Xrotation Yrotation Zrotation
											JOINT mixamorig:LeftHandPinky4
											{
												OFFSET 2.125504 0.000031 0.007517
												CHANNELS 6 Xposition Yposition Zposition Xrotation Yrotation Zrotation
												End Site
												{
													OFFSET 212.550781 0.000000 0.625752
												}
											}
										}
									}
								}
							}
						}
					}
				}
			}
		}
	}
	JOINT mixamorig:RightUpLeg
	{
		OFFSET -8.207787 -6.751648 -1.599560
		CHANNELS 6 Xposition Yposition Zposition Xrotation Yrotation Zrotation
		JOINT mixamorig:RightLeg
		{
			OFFSET -0.000002 -44.370117 0.345942
			CHANNELS 6 Xposition Yposition Zposition Xrotation Yrotation Zrotation
			JOINT mixamorig:RightFoot
			{
				OFFSET 0.000003 -44.423679 -3.043532
				CHANNELS 6 Xposition Yposition Zposition Xrotation Yrotation Zrotation
				JOINT mixamorig:RightToeBase
				{
					OFFSET -0.000002 -8.728671 10.710558
					CHANNELS 6 Xposition Yposition Zposition Xrotation Yrotation Zrotation
					JOINT mixamorig:RightToe_End
					{
						OFFSET -0.000001 -0.000679 9.278119
						CHANNELS 6 Xposition Yposition Zposition Xrotation Yrotation Zrotation
						End Site
						{
							OFFSET 0.000000 -0.067690 927.812134
						}
					}
				}
			}
		}
	}
	JOINT mixamorig:LeftUpLeg
	{
		OFFSET 8.207793 -6.751686 -1.599556
		CHANNELS 6 Xposition Yposition Zposition Xrotation Yrotation Zrotation
		JOINT mixamorig:LeftLeg
		{
			OFFSET -0.000004 -44.370014 0.346954
			CHANNELS 6 Xposition Yposition Zposition Xrotation Yrotation Zrotation
			JOINT mixamorig:LeftFoot
			{
				OFFSET -0.000001 -44.423672 -3.044401
				CHANNELS 6 Xposition Yposition Zposition Xrotation Yrotation Zrotation
				JOINT mixamorig:LeftToeBase
				{
					OFFSET -0.000002 -8.728669 10.710558
					CHANNELS 6 Xposition Yposition Zposition Xrotation Yrotation Zrotation
					JOINT mixamorig:LeftToe_End
					{
						OFFSET -0.000003 -0.000679 9.278133
						CHANNELS 6 Xposition Yposition Zposition Xrotation Yrotation Zrotation
						End Site
						{
							OFFSET 0.000000 -0.068021 927.813477
						}
					}
				}
			}
		}
	}
}
MOTION
Frames: 3
Frame Time: 0.033333
0.000006 104.270477 1.554256 0.000010 0.000003 -0.000113 -0.000005 10.181587 0.131522 0.000001 -0.000003 0.000084 -0.000000 9.893967 -1.470711 0.000001 0.000000 -0.000000 -0.000000 9.220802 -1.370642 0.000000 -0.000000 -0.000000 0.000001 16.740433 -2.049030 0.000000 -0.000000 -0.000000 0.000000 9.617859 1.685014 0.000000 0.000000 0.000000 0.000002 22.037384 7.501101 0.000000 -0.000000 0.000000 -4.569968 11.014880 -2.160881 0.000008 0.000001 -0.000038 -10.592878 -0.524759 -2.231900 74.371362 28.779682 -22.029155 -27.841530 0.000015 0.000535 -55.934082 106.593804 70.922424 -28.328827 0.000005 0.000027 -0.000319 -0.000045 0.000006 -2.464428 -1.573899 2.682377 -31.653641 -153.127937 23.355926 -3.215254 -1.872522 1.924638 151.993743 33.082168 16.339932 -2.654960 -1.527860 1.513072 147.493250 27.352693 -31.777885 -2.018849 -1.152004 1.108051 -0.000006 -0.000006 -0.000001 -9.108387 -0.517568 2.260167 104.659439 17.288932 -22.340280 -3.700067 0.000306 0.001547 101.256168 14.692114 -17.828119 -2.850111 0.000371 -0.000251 99.861443 11.952186 -14.186831 -2.772162 -0.000015 -0.000018 0.000000 0.000000 -0.000001 -9.532595 0.000267 0.000278 100.446415 15.357043 -18.567934 -3.700078 0.000322 0.004000 99.715564 12.117500 -14.234804 -2.950058 0.000338 -0.001799 98.213080 11.986260 -13.815535 -2.946624 0.000001 -0.000156 0.000001 -0.000001 -0.000000 -9.103707 -0.042750 -1.864831 98.857665 16.698098 -19.400372 -3.379334 0.000320 -0.000780 99.800784 9.902270 -11.768156 -2.889764 0.000342 0.000650 101.890180 7.494640 -9.286744 -2.638818 -0.000002 0.000939 0.000000 -0.000000 0.000000 -8.076756 -0.486389 -3.806022 87.746723 17.167160 -16.369141 -3.600029 0.000276 -0.003502 90.813908 8.500529 -8.261431 -2.100001 0.000317 -0.005491 91.361382 5.317178 -5.221293 -2.115781 -0.000043 -0.003675 -0.000001 -0.000001 -0.000001 4.570446 11.014691 -2.160851 -0.000018 0.000010 -0.000021 10.592411 -0.524478 -2.232354 71.552474 -16.830348 12.169933 27.841824 0.000058 -0.000195 102.021183 -73.294050 85.168422 28.328831 -0.000027 0.000015 0.000023 -0.000088 -0.000000 2.466064 -1.576184 2.681914 -30.091058 156.550791 -28.118789 3.217800 -1.871722 1.916375 158.709937 -30.844472 2.790518 2.656093 -1.528623 1.514454 143.801491 -26.993777 43.223124 2.020887 -1.154073 1.115141 0.000003 0.000006 0.000004 9.109381 -0.517887 2.259735 83.020444 -17.126196 15.170707 3.700052 0.000149 -0.000441 81.164921 -16.876163 14.498656 2.850056 0.000164 0.000217 79.862970 -14.173939 11.881485 2.774899 -0.000048 -0.000024 -0.000001 0.000001 -0.000002 9.533477 0.000196 -0.000083 81.925660 -16.132490 14.020418 3.700060 0.000170 -0.000387 85.852712 -14.939374 13.903356 2.950060 0.000150 -0.000174 84.747860 -19.227157 17.571176 2.952859 -0.000031 0.000060 0.000001 -0.000000 -0.000000 9.104585 -0.042861 -1.865223 80.409543 -15.487288 13.114394 3.150059 0.000194 -0.000093 88.349685 -13.203428 12.833457 2.950036 0.000170 -0.000078 89.537134 -15.805927 15.682166 2.644335 0.000044 0.000053 -0.000003 -0.000000 -0.000001 8.077841 -0.486748 -3.806386 70.722162 -17.395744 12.821530 3.600013 0.000168 0.014565 71.356250 -13.399592 10.013949 2.100035 0.000161 0.007561 75.211605 -13.430477 10.745640 2.125500 -0.000016 0.007514 -0.000001 0.000002 -0.000002 -8.207786 -6.751667 -1.599560 -0.077001 -0.000003 0.000080 -0.000002 -44.370110 0.345938 0.153719 -0.000000 -0.000000 0.000000 -44.423679 -3.043532 -0.076700 0.000000 -0.000002 -0.000006 -8.728667 10.710559 -0.000009 -0.000000 -0.000000 -0.000001 -0.000679 9.278123 0.000000 -0.000000 -0.000000 8.207792 -6.751710 -1.599556 -0.074518 -0.000003 0.000081 -0.000002 -44.370014 0.346960 0.148822 0.000002 0.000000 -0.000001 -44.423664 -3.044403 -0.074314 0.000000 -0.000002 -0.000004 -8.728671 10.710558 0.000007 -0.000000 -0.000000 0.000000 -0.000680 9.278137 -0.000000 0.000000 -0.000001 
0.000006 104.270477 1.554256 0.000010 0.000003 -0.000113 -0.000005 10.181587 0.131522 0.000001 -0.000003 0.000084 -0.000000 9.893967 -1.470711 0.000001 0.000000 -0.000000 -0.000000 9.220802 -1.370642 0.000000 -0.000000 -0.000000 0.000001 16.740433 -2.049030 0.000000 -0.000000 -0.000000 0.000000 9.617859 1.685014 0.000000 0.000000 0.000000 0.000002 22.037384 7.501101 0.000000 -0.000000 0.000000 -4.569968 11.014880 -2.160881 0.000008 0.000001 -0.000038 -10.592860 -0.524796 -2.231840 74.344109 40.376834 -31.158667 -27.841524 0.000002 0.000549 -52.095953 104.140912 64.190575 -28.328817 0.000023 0.000035 -0.000322 -0.000047 0.000009 -2.464396 -1.573903 2.682350 -35.260490 -150.738423 15.030478 -3.215258 -1.872550 1.924629 149.490875 32.554218 16.574977 -2.654964 -1.527877 1.513050 145.016473 28.123512 -26.697980 -2.018830 -1.152014 1.108059 -0.000004 -0.000002 0.000000 -9.108360 -0.517559 2.260174 104.689725 15.948898 -20.639221 -3.700061 0.000323 0.001538 101.957205 13.208198 -16.231922 -2.850070 0.000360 -0.000233 101.886273 11.100766 -13.657279 -2.772171 -0.000015 -0.000017 -0.000001 0.000000 0.000000 -9.532592 0.000259 0.000269 98.621662 17.019341 -19.909800 -3.700088 0.000323 0.004000 100.101449 13.477609 -15.945114 -2.950062 0.000329 -0.001783 102.082826 12.610885 -15.554175 -2.946632 0.000001 -0.000153 0.000000 -0.000002 -0.000000 -9.103696 -0.042763 -1.864838 95.925554 19.416256 -21.438519 -3.379352 0.000318 -0.000791 98.219022 12.498228 -14.434859 -2.889752 0.000342 0.000670 104.474321 9.061264 -11.741653 -2.638811 -0.000001 0.000941 -0.000000 0.000003 0.000001 -8.076746 -0.486396 -3.806021 85.083557 21.173855 -19.321603 -3.600064 0.000265 -0.003508 88.007213 12.782860 -11.987709 -2.100025 0.000317 -0.005465 93.307365 7.823764 -8.048036 -2.115774 -0.000041 -0.003680 0.000004 -0.000002 -0.000004 4.570446 11.014691 -2.160851 -0.000018 0.000010 -0.000021 10.592414 -0.524476 -2.232369 71.807589 -18.164226 13.203171 27.841816 0.000050 -0.000194 103.115605 -74.661071 87.706903 28.328833 -0.000027 0.000019 0.000018 -0.000089 -0.000000 2.466196 -1.576127 2.681860 -6.516632 160.168332 -73.379830 3.217842 -1.871783 1.916395 164.768533 -25.989635 24.345924 2.656116 -1.528682 1.514479 139.780750 -27.455509 56.178009 2.020887 -1.154067 1.115150 -0.000001 0.000002 0.000004 9.109375 -0.517863 2.259749 84.971774 -19.405143 17.788314 3.700044 0.000165 -0.000487 81.742939 -11.557462 10.024294 2.850028 0.000193 0.000204 80.575113 -8.993985 7.627439 2.774888 -0.000031 -0.000022 -0.000000 0.000002 -0.000000 9.533462 0.000206 -0.000089 84.347406 -18.387421 16.674659 3.700038 0.000181 -0.000384 86.277208 -9.487322 8.890121 2.950050 0.000171 -0.000203 86.356848 -10.655308 10.004591 2.952858 -0.000015 0.000063 -0.000000 -0.000000 0.000000 9.104585 -0.042869 -1.865230 82.603188 -17.890764 15.749141 3.150047 0.000215 -0.000107 89.500593 -10.560590 10.471225 2.950036 0.000187 -0.000073 90.596722 -10.183241 10.291032 2.644346 0.000031 0.000056 -0.000002 -0.000002 0.000001 8.077838 -0.486739 -3.806425 73.919804 -18.791350 14.654307 3.600001 0.000154 0.014588 75.860090 -15.933911 12.862109 2.100044 0.000171 0.007541 78.437244 -12.887063 10.932301 2.125502 0.000001 0.007517 -0.000000 -0.000000 0.000000 -8.207786 -6.751667 -1.599560 -0.077001 -0.000003 0.000080 -0.000002 -44.370110 0.345938 0.153719 -0.000000 -0.000000 0.000000 -44.423679 -3.043532 -0.076700 0.000000 -0.000002 -0.000006 -8.728667 10.710559 -0.000009 -0.000000 -0.000000 -0.000001 -0.000679 9.278123 0.000000 -0.000000 -0.000000 8.207792 -6.751710 -1.599556 -0.074518 -0.000003 0.000081 -0.000002 -44.370014 0.346960 0.148822 0.000002 0.000000 -0.000001 -44.423664 -3.044403 -0.074314 0.000000 -0.000002 -0.000004 -8.728671 10.710558 0.000007 -0.000000 -0.000000 0.000000 -0.000680 9.278137 -0.000000 0.000000 -0.000001 
0.000006 104.270477 1.554256 0.000010 0.000003 -0.000113 -0.000005 10.181587 0.131522 0.000001 -0.000003 0.000084 -0.000000 9.893967 -1.470711 0.000001 0.000000 -0.000000 -0.000000 9.220802 -1.370642 0.000000 -0.000000 -0.000000 0.000001 16.740433 -2.049030 0.000000 -0.000000 -0.000000 0.000000 9.617859 1.685014 0.000000 0.000000 0.000000 0.000002 22.037384 7.501101 0.000000 -0.000000 0.000000 -4.569968 11.014880 -2.160881 0.000008 0.000001 -0.000038 -10.592838 -0.524810 -2.231812 74.174283 48.093008 -37.278756 -27.841520 0.000003 0.000556 -47.509601 102.289719 57.296353 -28.328857 0.000006 0.000026 -0.000321 -0.000047 0.000009 -2.464571 -1.574107 2.682379 13.008946 -149.715657 88.343928 -3.215133 -1.872427 1.924605 139.638532 33.570352 69.431414 -2.654961 -1.527902 1.513092 152.776415 26.816620 -29.717832 -2.018834 -1.152014 1.108064 -0.000003 0.000001 0.000002 -9.108366 -0.517546 2.260172 107.913731 15.721373 -21.549069 -3.700054 0.000321 0.001549 105.897111 11.455581 -15.105356 -2.850058 0.000372 -0.000243 102.969336 8.167120 -10.250686 -2.772170 0.000000 -0.000011 0.000001 0.000002 -0.000001 -9.532581 0.000283 0.000263 100.443054 13.194191 -15.983131 -3.700042 0.000338 0.003998 100.151747 9.660414 -11.422360 -2.950067 0.000324 -0.001801 97.969057 10.370956 -11.905446 -2.946609 -0.000000 -0.000150 -0.000000 -0.000003 -0.000000 -9.103688 -0.042745 -1.864857 96.720116 15.378862 -17.220760 -3.379355 0.000305 -0.000790 98.854844 11.495382 -13.429256 -2.889745 0.000355 0.000683 100.032178 9.425968 -11.285224 -2.638795 -0.000001 0.000940 0.000000 0.000006 0.000000 -8.076733 -0.486363 -3.806030 87.078997 16.284494 -15.342499 -3.600055 0.000262 -0.003514 87.130141 11.512846 -10.602625 -2.100027 0.000305 -0.005487 88.947744 8.707060 -8.324691 -2.115757 -0.000056 -0.003686 0.000001 -0.000002 -0.000005 4.570446 11.014691 -2.160851 -0.000018 0.000010 -0.000021 10.592461 -0.524483 -2.232404 71.037458 -33.082288 23.938076 27.841835 0.000028 -0.000184 105.275324 -76.017861 91.336561 28.328806 -0.000029 0.000022 0.000022 -0.000090 -0.000002 2.466233 -1.576085 2.681847 9.321350 163.285576 -97.124914 3.217868 -1.871782 1.916400 164.815989 -26.165048 23.641370 2.656110 -1.528664 1.514475 143.059296 -26.590068 51.759129 2.020899 -1.154078 1.115144 -0.000000 0.000001 0.000002 9.109377 -0.517861 2.259747 90.547203 -20.888715 21.071678 3.700056 0.000181 -0.000457 87.799561 -12.684171 12.226071 2.850027 0.000206 0.000189 86.285213 -9.820047 9.204704 2.774892 -0.000044 -0.000024 -0.000001 -0.000001 0.000001 9.533461 0.000197 -0.000089 87.796597 -20.174888 19.419495 3.700056 0.000182 -0.000385 89.950668 -11.240623 11.228368 2.950047 0.000185 -0.000199 90.023498 -10.673842 10.681065 2.952874 -0.000014 0.000061 0.000001 -0.000001 -0.000000 9.104586 -0.042850 -1.865201 86.636182 -19.649715 18.550626 3.150061 0.000194 -0.000098 89.471646 -12.186022 12.076804 2.950023 0.000190 -0.000093 89.741302 -9.857043 9.814569 2.644320 0.000031 0.000057 0.000003 0.000000 -0.000001 8.077831 -0.486728 -3.806401 80.097956 -20.451321 17.760107 3.600009 0.000168 0.014581 79.384659 -17.296443 14.833890 2.100042 0.000176 0.007548 81.122444 -12.909639 11.480979 2.125511 -0.000015 0.007514 0.000000 -0.000001 -0.000000 -8.207786 -6.751667 -1.599560 -0.077001 -0.000003 0.000080 -0.000002 -44.370110 0.345938 0.153719 -0.000000 -0.000000 0.000000 -44.423679 -3.043532 -0.076700 0.000000 -0.000002 -0.000006 -8.728667 10.710559 -0.000009 -0.000000 -0.000000 -0.000001 -0.000679 9.278123 0.000000 -0.000000 -0.000000 8.207792 -6.751710 -1.599556 -0.074518 -0.000003 0.000081 -0.000002 -44.370014 0.346960 0.148822 0.000002 0.000000 -0.000001 -44.423664 -3.044403 -0.074314 0.000000 -0.000002 -0.000004 -8.728671 10.710558 0.000007 -0.000000 -0.000000 0.000000 -0.000680 9.278137 -0.000000 0.000000 -0.000001 
